<svg xmlns="http://www.w3.org/2000/svg" width="89.243" height="107.555" viewBox="0 0 89.243 107.555">
  <g id="Group_318" data-name="Group 318" transform="translate(-1785 -19.597)">
    <g id="Group_316" data-name="Group 316" transform="translate(117.701 -109.597)">
      <g id="Group_314" data-name="Group 314">
        <g id="Group_315" data-name="Group 315">
          <path id="Path_1" data-name="Path 1" d="M4954.594,2802.534c-10.388.648-21.977,6.367-21.566,23.62s0,57.921,0,57.921-.41,25.469,26.7,25.674,62.233-27.933,62.439-59.975,0-33.684,0-33.684,1.849-13.35-12.734-13.556S4964.981,2801.886,4954.594,2802.534Z" transform="translate(-3265.717 -2673)"/>
        </g>
      </g>
    </g>
    <g id="Bounding_Boxes" transform="translate(1804.791 44.38)">
      <path id="Path_2478" data-name="Path 2478" d="M0,0H49.933V49.933H0Z" fill="none"/>
    </g>
    <g id="Group_317" data-name="Group 317" transform="translate(117.701 -109.597)">
      <g id="Outline" transform="translate(1689.171 158.138)">
        <g id="Group_103" data-name="Group 103">
          <path id="Path_2479" data-name="Path 2479" d="M31.272,24.886a4.141,4.141,0,0,0,3.641-2.143l7.448-13.5a2.072,2.072,0,0,0-1.81-3.079H9.759L7.8,2H1V6.161H5.161l7.49,15.791L9.842,27.029a4.169,4.169,0,0,0,3.641,6.179H38.449V29.047H13.483l2.289-4.161ZM11.736,10.322H37.014l-5.742,10.4H16.666Z" transform="translate(-1 -2)" fill="#fff"/>
          <path id="Path_2480" data-name="Path 2480" d="M9.15,18a4.161,4.161,0,1,0,4.161,4.161A4.156,4.156,0,0,0,9.15,18Z" transform="translate(3.333 15.288)" fill="#fff"/>
          <path id="Path_2481" data-name="Path 2481" d="M19.15,18a4.161,4.161,0,1,0,4.161,4.161A4.156,4.156,0,0,0,19.15,18Z" transform="translate(14.138 15.288)" fill="#fff"/>
        </g>
      </g>
    </g>
  </g>
</svg>
